<?xml version="1.0" encoding="utf-8"?>
<!-- Generator: Adobe Illustrator 23.0.0, SVG Export Plug-In . SVG Version: 6.00 Build 0)  -->
<svg version="1.1" id="Capa_1" xmlns="http://www.w3.org/2000/svg" xmlns:xlink="http://www.w3.org/1999/xlink" x="0px" y="0px"
	 viewBox="0 0 179 148.8" style="enable-background:new 0 0 179 148.8;" xml:space="preserve">
<style type="text/css">
	.st0{fill:#FFFFFF;}
</style>
<g>
	<path class="st0" d="M179,59.3c0-9.1-7.3-14.1-14.1-14.1c-4.8,0-9.4,1.5-14.6,4.9l-1.6,1l0-1.8c0-0.2,0-0.4,0-0.7
		c0-0.2,0-0.4,0-0.6c0-1.5-1.2-2.8-2.8-2.8H17.9c-1.5,0-2.8,1.2-2.8,2.8c0,36.7,8.8,63.1,26.1,78.4l2,1.8H2.8
		c-1.5,0-2.8,1.2-2.8,2.8c0,9.8,8,17.9,17.9,17.9h128.2c9.8,0,17.9-8,17.9-17.9c0-1.5-1.2-2.8-2.8-2.8h-40.4l2-1.8
		c9.3-8.2,16.2-19.7,20.5-34.2l0.1-0.4l0.4-0.2C169.8,80.4,179,67.2,179,59.3z M158.1,133.8l-0.5,1.3c-1.7,4.9-6.4,8.2-11.6,8.2
		H17.9c-5.2,0-9.9-3.3-11.6-8.2l-0.5-1.3H158.1z M143.3,51.8c-0.7,38.4-11.4,64-32.1,76.3l-0.2,0.1H53l-0.2-0.1
		c-20.6-12.2-31.4-37.9-32.1-76.3l0-1h122.6L143.3,51.8z M146.8,84.2L145,85l0.4-2c1.6-7.5,2.6-15.6,3-24.3l0-0.5l0.4-0.3
		c4.5-3.5,9.8-7.2,16.1-7.2c4.1,0,8.5,2.7,8.5,8.5C173.5,63.5,167.9,74,146.8,84.2z"/>
	<path class="st0" d="M60.9,115.5c-10.5-6-17.8-17.4-21.8-34.2c-0.3-1.3-1.4-2.1-2.7-2.1c-0.2,0-0.4,0-0.6,0.1
		c-1.5,0.4-2.4,1.8-2,3.3c4.4,18.3,12.6,30.9,24.4,37.7c0.4,0.2,0.9,0.4,1.4,0.4c1,0,1.9-0.5,2.4-1.4
		C62.7,117.9,62.3,116.2,60.9,115.5z"/>
	<path class="st0" d="M82,35.7c1.5,0,2.8-1.2,2.8-2.8c0-2.5,1-3.6,3-5.6c2-2,4.6-4.6,4.6-9.5c0-4.9-2.5-7.5-4.6-9.5
		c-1.9-1.9-3-3.1-3-5.6C84.7,1.2,83.5,0,82,0s-2.8,1.2-2.8,2.8c0,4.9,2.5,7.5,4.6,9.5c1.9,1.9,3,3.1,3,5.6c0,2.5-1,3.6-3,5.6
		c-2,2-4.6,4.6-4.6,9.5C79.2,34.5,80.4,35.7,82,35.7z"/>
	<path class="st0" d="M48,35.7c1.5,0,2.8-1.2,2.8-2.8c0-2.5,1-3.6,3-5.6c2-2,4.6-4.6,4.6-9.5c0-4.9-2.5-7.5-4.6-9.5
		c-1.9-1.9-3-3.1-3-5.6C50.8,1.2,49.5,0,48,0s-2.8,1.2-2.8,2.8c0,4.9,2.5,7.5,4.6,9.5c1.9,1.9,3,3.1,3,5.6c0,2.5-1,3.6-3,5.6
		c-2,2-4.6,4.6-4.6,9.5C45.3,34.5,46.5,35.7,48,35.7z"/>
	<path class="st0" d="M115.9,35.7c1.5,0,2.8-1.2,2.8-2.8c0-2.5,1-3.6,3-5.6c2-2,4.6-4.6,4.6-9.5c0-4.9-2.5-7.5-4.6-9.5
		c-1.9-1.9-3-3.1-3-5.6c0-1.5-1.2-2.8-2.8-2.8s-2.8,1.2-2.8,2.8c0,4.9,2.5,7.5,4.6,9.5c1.9,1.9,3,3.1,3,5.6c0,2.5-1,3.6-3,5.6
		c-2,2-4.6,4.6-4.6,9.5C113.1,34.5,114.4,35.7,115.9,35.7z"/>
</g>
</svg>
