<?xml version="1.0" encoding="utf-8"?>
<!-- Generator: Adobe Illustrator 23.0.0, SVG Export Plug-In . SVG Version: 6.00 Build 0)  -->
<svg version="1.1" id="Capa_1" xmlns="http://www.w3.org/2000/svg" xmlns:xlink="http://www.w3.org/1999/xlink" x="0px" y="0px"
	 viewBox="0 0 74.1 76.9" style="enable-background:new 0 0 74.1 76.9;" xml:space="preserve">
<style type="text/css">
	.st0{fill:none;stroke:#FFFFFF;stroke-width:2;stroke-miterlimit:10;}
	.st1{fill:#FFFFFF;}
</style>
<g>
	<polygon class="st0" points="10.2,61.8 10.2,30.5 4.6,30.5 4.6,61.8 4.6,67.5 10.2,67.5 51.9,67.5 51.9,61.8 	"/>
	<g>
		<path class="st0" d="M63.4,54.6h-1.3c-5.7,0-10.3,4.4-10.3,9.9c0,5.5,4.6,9.9,10.3,9.9h1.3V54.6z"/>
		<rect x="54.5" y="62" transform="matrix(6.123234e-17 -1 1 6.123234e-17 1.3539 130.4209)" class="st0" width="22.7" height="5"/>
		<path class="st0" d="M68.7,62.9h2.5c1,0,1.9-0.8,1.9-1.9s-0.8-1.9-1.9-1.9h-2.5V62.9z"/>
		<path class="st0" d="M68.7,70h2.5c1,0,1.9-0.8,1.9-1.9s-0.8-1.9-1.9-1.9h-2.5V70z"/>
	</g>
</g>
<g>
	<polygon class="st0" points="63.8,15 63.8,46.4 69.5,46.4 69.5,15 69.5,9.4 63.8,9.4 22.2,9.4 22.2,15 	"/>
	<g>
		<path class="st0" d="M10.7,22.3h1.3c5.7,0,10.3-4.4,10.3-9.9s-4.6-9.9-10.3-9.9h-1.3V22.3z"/>
		
			<rect x="-3.2" y="9.8" transform="matrix(-4.491892e-11 1 -1 -4.491892e-11 20.5221 4.1551)" class="st0" width="22.7" height="5"/>
		<path class="st0" d="M5.4,14H2.9c-1,0-1.9,0.8-1.9,1.9s0.8,1.9,1.9,1.9h2.5V14z"/>
		<path class="st0" d="M5.4,6.9H2.9C1.8,6.9,1,7.7,1,8.8s0.8,1.9,1.9,1.9h2.5V6.9z"/>
	</g>
</g>
<g>
	<g>
		<g>
			<circle class="st1" cx="36.8" cy="48.8" r="1.7"/>
		</g>
	</g>
	<g>
		<g>
			<path class="st1" d="M50.1,34c-3.5-3.7-8.2-5.8-13.3-5.8c-5.1,0-9.8,2.1-13.3,5.8c-0.4,0.4-0.4,1.1,0.1,1.5
				c0.4,0.4,1.1,0.4,1.5-0.1c3.1-3.3,7.2-5.1,11.7-5.1c4.5,0,8.6,1.8,11.7,5.1c0.2,0.2,0.5,0.3,0.8,0.3c0.3,0,0.5-0.1,0.7-0.3
				C50.5,35.1,50.5,34.5,50.1,34z"/>
		</g>
	</g>
	<g>
		<g>
			<path class="st1" d="M46.2,38.4c-2.6-2.6-5.9-4-9.4-4c-3.5,0-6.8,1.4-9.4,4c-0.4,0.4-0.4,1.1,0,1.5c0.4,0.4,1.1,0.4,1.5,0
				c2.2-2.2,5-3.4,7.9-3.4c2.9,0,5.7,1.2,7.9,3.4c0.2,0.2,0.5,0.3,0.8,0.3c0.3,0,0.5-0.1,0.7-0.3C46.6,39.5,46.6,38.8,46.2,38.4z"/>
		</g>
	</g>
	<g>
		<g>
			<path class="st1" d="M42,42.8c-1.4-1.4-3.4-2.2-5.2-2.2c0,0,0,0,0,0h-0.1c0,0,0,0,0,0c-1.8,0-3.8,0.8-5.2,2.2
				c-0.4,0.4-0.4,1.1,0,1.5c0.2,0.2,0.5,0.3,0.8,0.3c0.3,0,0.5-0.1,0.7-0.3c1-1,2.4-1.6,3.7-1.6c0,0,0,0,0,0h0.1c0,0,0,0,0,0
				c1.2,0,2.7,0.6,3.7,1.6c0.4,0.4,1.1,0.4,1.5,0C42.4,43.9,42.4,43.2,42,42.8z"/>
		</g>
	</g>
</g>
</svg>
