<?xml version="1.0" encoding="utf-8"?>
<!-- Generator: Adobe Illustrator 23.0.0, SVG Export Plug-In . SVG Version: 6.00 Build 0)  -->
<svg version="1.1" id="Capa_1" xmlns="http://www.w3.org/2000/svg" xmlns:xlink="http://www.w3.org/1999/xlink" x="0px" y="0px"
	 viewBox="0 0 106.7 106.1" style="enable-background:new 0 0 106.7 106.1;" xml:space="preserve">
<style type="text/css">
	.st0{fill:none;stroke:#FFFFFF;stroke-width:2.8065;stroke-miterlimit:10;}
	.st1{fill:none;stroke:#FFFFFF;stroke-width:2;stroke-miterlimit:10;}
	.st2{fill:none;stroke:#FFFFFF;stroke-width:1.7178;stroke-miterlimit:10;}
	.st3{fill:#FFFFFF;}
	.st4{font-family:'MyriadPro-Regular';}
	.st5{font-size:12px;}
</style>
<g>
	<polygon class="st0" points="53.4,17.4 63.8,3.3 67.6,20.4 82.9,11.8 79.4,29 96.9,27.3 86.7,41.6 103.4,47.2 88.2,56.1 101.2,68 
		83.7,70 90.7,86.1 74,80.9 73.8,98.4 60.6,86.8 53.4,102.8 46.1,86.8 32.9,98.4 32.7,80.9 16,86.1 23,70 5.5,68 18.5,56.1 
		3.4,47.2 20,41.6 9.8,27.3 27.3,29 23.8,11.8 39.1,20.4 42.9,3.3 	"/>
	<circle class="st1" cx="53.4" cy="53" r="29.5"/>
	<circle class="st2" cx="53.4" cy="53" r="25.4"/>
	<text transform="matrix(1 0 0 1 36.6461 51.3024)"><tspan x="0" y="0" class="st3 st4 st5">Great</tspan><tspan x="7.1" y="14.4" class="st3 st4 st5">Job</tspan></text>
</g>
</svg>
