<?xml version="1.0" encoding="utf-8"?>
<!-- Generator: Adobe Illustrator 23.0.0, SVG Export Plug-In . SVG Version: 6.00 Build 0)  -->
<svg version="1.1" id="Capa_1" xmlns="http://www.w3.org/2000/svg" xmlns:xlink="http://www.w3.org/1999/xlink" x="0px" y="0px"
	 viewBox="0 0 75.1 99.1" style="enable-background:new 0 0 75.1 99.1;" xml:space="preserve">
<style type="text/css">
	.st0{fill:#FFFFFF;}
</style>
<g id="XMLID_1487_">
	<g id="XMLID_1153_">
		<path id="XMLID_1329_" class="st0" d="M70.6,54.9L55.8,31.8c2.1-1.1,3.5-3.3,3.5-5.8c0-2.8-1.7-5.1-4.1-6.1l4.5-15.7
			c0.2-0.7,0-1.4-0.5-1.9c-3-3-7.8-3-10.8,0c-0.7,0.7-1.7,1.1-2.7,1.1S43.7,3,43,2.2l0,0c-3-3-7.8-3-10.8,0l-0.1,0.1
			c-1.5,1.5-3.9,1.5-5.3,0l0,0c-3-3-7.8-3-10.8,0c-0.5,0.5-0.7,1.2-0.5,1.9L20,19.8c-2.4,1-4.2,3.3-4.2,6.1c0,2.5,1.4,4.7,3.5,5.8
			L4.6,54.9c-5.7,9-6.1,19.9-1,29.2s14.5,14.9,25.2,14.9h17.6c10.6,0,20.1-5.6,25.2-14.9C76.7,74.8,76.3,63.9,70.6,54.9L70.6,54.9z
			 M24.1,5L24.1,5c3,3,7.8,3,10.8,0L34.9,5c1.5-1.5,3.9-1.5,5.3,0l0,0c3,3,7.8,3,10.8,0c1.2-1.2,3.1-1.4,4.5-0.6l-4.3,15H23.9
			l-4.3-15C21,3.6,22.8,3.8,24.1,5L24.1,5z M68.2,82.3c-4.4,8.1-12.6,12.9-21.8,12.9H28.8c-9.2,0-17.3-4.8-21.8-12.9
			C2.6,74.2,2.9,64.8,7.8,57l15.6-24.5h5.4c1.1,0,1.9-0.9,1.9-1.9c0-1.1-0.9-1.9-1.9-1.9h-6.5c-1.5,0-2.7-1.2-2.7-2.7
			c0-1.5,1.2-2.7,2.7-2.7h0h30.3c1.5,0,2.7,1.2,2.7,2.7c0,1.5-1.2,2.7-2.7,2.7h-6.5c-1.1,0-1.9,0.9-1.9,1.9c0,1.1,0.9,1.9,1.9,1.9
			h5.4L67.3,57C72.3,64.8,72.6,74.2,68.2,82.3L68.2,82.3z"/>
		<path id="XMLID_1341_" class="st0" d="M41,63.2c-0.5-0.2-1-0.4-1.5-0.5v-8.8c1.3,0.4,2.2,1,2.2,1c0.9,0.6,2.1,0.5,2.7-0.4
			c0.6-0.9,0.5-2.1-0.4-2.7c-0.1-0.1-1.9-1.4-4.6-1.9V48c0-1.1-0.9-1.9-1.9-1.9c-1.1,0-1.9,0.9-1.9,1.9v1.9c-0.3,0.1-0.7,0.1-1,0.2
			c-2.7,0.8-4.8,3.1-5.3,6.1c-0.5,2.7,0.4,5.3,2.2,6.7c1,0.8,2.3,1.5,4.1,2.3v11.2c-1.5-0.1-2.5-0.4-4.2-1.6
			c-0.9-0.6-2.1-0.3-2.7,0.6c-0.6,0.9-0.3,2.1,0.6,2.7c2.5,1.6,4.2,2.1,6.4,2.2v2c0,1.1,0.9,1.9,1.9,1.9s1.9-0.9,1.9-1.9v-2.2
			c4.1-0.9,6.6-4.4,7.1-7.6C47.3,68.3,45.1,64.7,41,63.2L41,63.2z M34,59.9c-0.7-0.6-1.1-1.7-0.8-3c0.2-1.1,1-2.5,2.5-3V61
			C35,60.6,34.4,60.3,34,59.9z M42.8,71.9c-0.3,1.7-1.4,3.4-3.3,4.2v-9.3c0.1,0,0.1,0,0.2,0.1C43.2,68.1,42.9,71,42.8,71.9z"/>
		<path id="XMLID_1343_" class="st0" d="M37.6,32.5c0.5,0,1-0.2,1.4-0.6c0.4-0.4,0.6-0.9,0.6-1.4c0-0.5-0.2-1-0.6-1.4
			c-0.4-0.4-0.9-0.6-1.4-0.6s-1,0.2-1.4,0.6c-0.4,0.4-0.6,0.9-0.6,1.4c0,0.5,0.2,1,0.6,1.4C36.6,32.3,37.1,32.5,37.6,32.5L37.6,32.5
			z"/>
	</g>
</g>
</svg>
