<?xml version="1.0" encoding="utf-8"?>
<!-- Generator: Adobe Illustrator 23.0.0, SVG Export Plug-In . SVG Version: 6.00 Build 0)  -->
<svg version="1.1" id="Capa_1" xmlns="http://www.w3.org/2000/svg" xmlns:xlink="http://www.w3.org/1999/xlink" x="0px" y="0px"
	 viewBox="0 0 248 98.9" style="enable-background:new 0 0 248 98.9;" xml:space="preserve">
<style type="text/css">
	.st0{fill:#FCF9FC;}
	.st1{fill:#FFFFFF;}
	.st2{fill:none;stroke:#FFFFFF;stroke-width:3;stroke-miterlimit:10;}
	.st3{fill:#FFFBFF;}
</style>
<g>
	<g>
		<path class="st0" d="M208.8,14.2c-1-0.9-2.3-1.5-3.8-1.5c-1.4,0-2.8,0.5-3.8,1.5l-0.5,0.5l-0.5-0.5c-1-0.9-2.3-1.5-3.8-1.5
			c-1.4,0-2.8,0.5-3.8,1.5c-1,0.9-1.6,2.2-1.6,3.5c0,1.3,0.6,2.6,1.6,3.5l7.6,8.2c0.1,0.1,0.2,0.2,0.4,0.2c0.1,0,0.3,0,0.4-0.1
			l7.7-8.2c1-0.9,1.6-2.2,1.6-3.5C210.4,16.4,209.8,15.2,208.8,14.2z"/>
	</g>
</g>
<path class="st1" d="M237.8,86.6c-0.2-6-5.1-10.9-11.1-11c-0.2-6.1-5.2-11-11.4-11c-4.5,0-8.4,2.6-10.2,6.5
	c-1.8-3.8-5.7-6.5-10.2-6.5s-8.4,2.6-10.2,6.5c-1.8-3.8-5.7-6.5-10.2-6.5c-4.5,0-8.4,2.6-10.2,6.5c-1.8-3.8-5.7-6.5-10.2-6.5
	c-4.5,0-8.4,2.6-10.2,6.5c-1.8-3.8-5.7-6.5-10.2-6.5c-4.5,0-8.4,2.6-10.2,6.5c-1.8-3.8-5.7-6.5-10.2-6.5s-8.4,2.6-10.2,6.5
	c-1.8-3.8-5.7-6.5-10.2-6.5c-4.5,0-8.4,2.6-10.2,6.5c-1.8-3.8-5.7-6.5-10.2-6.5s-8.4,2.6-10.2,6.5c-1.8-3.8-5.7-6.5-10.2-6.5
	s-8.4,2.6-10.2,6.5c-1.8-3.8-5.7-6.5-10.2-6.5c-6.2,0-11.2,5-11.4,11.1c-5.2,0.9-9.2,5.4-9.4,10.8C4.5,87.2,0,92.1,0,98
	c0,0.2,0,0.3,0,0.5l0,0.4h2.4l0-0.3c0-0.2,0-0.4,0-0.6c0-4.9,4-8.9,8.9-8.9s8.9,4,8.9,8.9c0,0.2,0,0.4,0,0.5l0,0.4h0.3h2.2H23l0-0.4
	c0-0.2,0-0.3,0-0.5c0-4.9,4-8.9,8.9-8.9s8.9,4,8.9,8.9c0,0.2,0,0.4,0,0.5l0,0.4H41h2.2h0.3l0-0.4c0-0.2,0-0.4,0-0.5
	c0-4.9,4-8.9,8.9-8.9c4.9,0,8.9,4,8.9,8.9c0,0.2,0,0.4,0,0.5l0,0.4h0.3h2.2h0.3l0-0.4c0-0.2,0-0.4,0-0.5c0-4.9,4-8.9,8.9-8.9
	c4.9,0,8.9,4,8.9,8.9c0,0.2,0,0.4,0,0.5l0,0.4H82h2.2h0.3l0-0.4c0-0.2,0-0.4,0-0.5c0-4.9,4-8.9,8.9-8.9c4.9,0,8.9,4,8.9,8.9
	c0,0.2,0,0.4,0,0.5l0,0.4h0.3h2.2h0.3l0-0.4c0-0.2,0-0.4,0-0.5c0-4.9,4-8.9,8.9-8.9s8.9,4,8.9,8.9c0,0.2,0,0.3,0,0.5l0,0.4h0.3h2.2
	h0.3l0-0.4c0-0.2,0-0.4,0-0.5c0-4.9,4-8.9,8.9-8.9s8.9,4,8.9,8.9c0,0.2,0,0.3,0,0.5l0,0.4h0.3h2.2h0.3l0-0.3c0-0.2,0-0.4,0-0.6
	c0-4.9,4-8.9,8.9-8.9s8.9,4,8.9,8.9c0,0.2,0,0.4,0,0.6l0,0.3h0.3h2.2h0.3l0-0.3c0-0.2,0-0.4,0-0.6c0-4.9,4-8.9,8.9-8.9
	s8.9,4,8.9,8.9c0,0.2,0,0.4,0,0.6l0,0.3h0.3h2.2h0.3l0-0.3c0-0.2,0-0.4,0-0.6c0-4.9,4-8.9,8.9-8.9s8.9,4,8.9,8.9c0,0.2,0,0.4,0,0.6
	l0,0.3h0.3h2.2h0.3l0-0.3c0-0.2,0-0.4,0-0.6c0-4.9,4-8.9,8.9-8.9s8.9,4,8.9,8.9c0,0.2,0,0.4,0,0.5l0,0.4h0.3h2.2h0.3l0-0.4
	c0-0.2,0-0.3,0-0.5c0-4.9,4-8.9,8.9-8.9s8.9,4,8.9,8.9c0,0.2,0,0.4,0,0.5l0,0.4h2.4l0-0.4c0-0.2,0-0.3,0-0.5
	C248,92.1,243.5,87.2,237.8,86.6z M31,67.1c4.9,0,8.8,3.9,8.9,8.7c-3.6,0.7-6.5,3.1-8,6.2c-1.8-3.7-5.5-6.3-9.8-6.4
	C22.3,70.9,26.2,67.1,31,67.1z M216.2,82.1c-1.8-3.7-5.5-6.3-9.8-6.4c0.2-4.7,4.1-8.5,8.9-8.5c4.9,0,8.8,3.9,8.9,8.7
	C220.7,76.5,217.7,78.9,216.2,82.1z M195.7,82.1c-1.8-3.7-5.5-6.3-9.8-6.4c0.2-4.7,4.1-8.5,8.9-8.5c4.9,0,8.8,3.9,8.9,8.7
	C200.2,76.5,197.2,78.9,195.7,82.1z M175.2,82.1c-1.8-3.7-5.5-6.3-9.8-6.4c0.2-4.7,4.1-8.5,8.9-8.5c4.9,0,8.8,3.9,8.9,8.7
	C179.7,76.5,176.8,78.9,175.2,82.1z M154.7,82.1c-1.8-3.7-5.5-6.3-9.8-6.4c0.2-4.7,4.1-8.5,8.9-8.5c4.9,0,8.8,3.9,8.9,8.7
	C159.2,76.5,156.3,78.9,154.7,82.1z M134.3,82.1c-1.8-3.7-5.5-6.3-9.8-6.4c0.2-4.7,4.1-8.5,8.9-8.5c4.9,0,8.8,3.9,8.9,8.7
	C138.8,76.5,135.8,78.9,134.3,82.1z M113.8,82.1c-1.8-3.7-5.5-6.3-9.8-6.4c0.2-4.7,4.1-8.5,8.9-8.5c4.9,0,8.8,3.9,8.9,8.7
	C118.3,76.5,115.3,78.9,113.8,82.1z M93.3,82.1c-1.8-3.7-5.5-6.3-9.8-6.4c0.2-4.7,4.1-8.5,8.9-8.5c4.9,0,8.8,3.9,8.9,8.7
	C97.8,76.5,94.8,78.9,93.3,82.1z M72.8,82.1c-1.8-3.7-5.5-6.3-9.8-6.4c0.2-4.7,4.1-8.5,8.9-8.5c4.9,0,8.8,3.9,8.9,8.7
	C77.3,76.5,74.4,78.9,72.8,82.1z M52.3,82.1c-1.8-3.7-5.5-6.3-9.8-6.4c0.2-4.7,4.1-8.5,8.9-8.5c4.9,0,8.8,3.9,8.9,8.7
	C56.8,76.5,53.9,78.9,52.3,82.1z M21.6,78.1c4.8,0,8.7,3.8,8.9,8.6c-3.9,0.5-7.3,2.9-8.9,6.4c-1.7-3.4-5-5.9-8.9-6.4
	C12.9,81.9,16.8,78.1,21.6,78.1z M42.1,78.1c4.8,0,8.7,3.8,8.9,8.6c-3.9,0.5-7.3,2.9-8.9,6.4c-1.7-3.4-5-5.9-8.9-6.4
	C33.4,81.9,37.3,78.1,42.1,78.1z M62.6,78.1c4.8,0,8.7,3.8,8.9,8.6c-3.9,0.5-7.3,2.9-8.9,6.4c-1.7-3.4-5-5.9-8.9-6.4
	C53.8,81.9,57.8,78.1,62.6,78.1z M83.1,78.1c4.8,0,8.7,3.8,8.9,8.6c-3.9,0.5-7.3,2.9-8.9,6.4c-1.7-3.4-5-5.9-8.9-6.4
	C74.3,81.9,78.2,78.1,83.1,78.1z M103.5,78.1c4.8,0,8.7,3.8,8.9,8.6c-3.9,0.5-7.3,2.9-8.9,6.4c-1.7-3.4-5-5.9-8.9-6.4
	C94.8,81.9,98.7,78.1,103.5,78.1z M124,78.1c4.8,0,8.7,3.8,8.9,8.6c-3.9,0.5-7.3,2.9-8.9,6.4c-1.7-3.4-5-5.9-8.9-6.4
	C115.3,81.9,119.2,78.1,124,78.1z M144.5,78.1c4.8,0,8.7,3.8,8.9,8.6c-3.9,0.5-7.3,2.9-8.9,6.4c-1.7-3.4-5-5.9-8.9-6.4
	C135.8,81.9,139.7,78.1,144.5,78.1z M165,78.1c4.8,0,8.7,3.8,8.9,8.6c-3.9,0.5-7.3,2.9-8.9,6.4c-1.7-3.4-5-5.9-8.9-6.4
	C156.2,81.9,160.2,78.1,165,78.1z M185.5,78.1c4.8,0,8.7,3.8,8.9,8.6c-3.9,0.5-7.3,2.9-8.9,6.4c-1.7-3.4-5-5.9-8.9-6.4
	C176.7,81.9,180.6,78.1,185.5,78.1z M205.9,78.1c4.8,0,8.7,3.8,8.9,8.6c-3.9,0.5-7.3,2.9-8.9,6.4c-1.7-3.4-5-5.9-8.9-6.4
	C197.2,81.9,201.1,78.1,205.9,78.1z M226.4,78.1c4.8,0,8.7,3.8,8.9,8.6c-3.9,0.5-7.3,2.9-8.9,6.4c-1.7-3.4-5-5.9-8.9-6.4
	C217.7,81.9,221.6,78.1,226.4,78.1z"/>
<path class="st2" d="M55.5,49.9h-9.3l-4.5,9c-0.2,0.4-0.8,0.4-1,0l-4.2-9h-9.7c-2.6,0-4.7-2.1-4.7-4.7V16.6c0-2.6,2.1-4.7,4.7-4.7
	h28.6c2.6,0,4.7,2.1,4.7,4.7v28.6C60.2,47.8,58.1,49.9,55.5,49.9z"/>
<path class="st3" d="M50.7,33.4c-0.4,0-0.7,0.2-0.9,0.6c-1.5,3.3-4.7,5.6-8.6,5.6c-3.8,0-7.1-2.3-8.6-5.6c-0.2-0.4-0.5-0.6-0.9-0.6
	h0c-0.7,0-1.2,0.7-0.9,1.4c1.8,4,5.8,6.8,10.4,6.8c4.6,0,8.6-2.8,10.4-6.8C51.9,34.1,51.4,33.4,50.7,33.4L50.7,33.4z"/>
<circle class="st3" cx="33.7" cy="27.9" r="2.3"/>
<circle class="st3" cx="49.1" cy="27.9" r="2.3"/>
<g>
	<path class="st2" d="M112.1,41.7h-9.3l-4.5,9c-0.2,0.4-0.8,0.4-1,0l-4.2-9h-9.7c-2.6,0-4.7-2.1-4.7-4.7V8.4c0-2.6,2.1-4.7,4.7-4.7
		h28.6c2.6,0,4.7,2.1,4.7,4.7v28.6C116.8,39.6,114.7,41.7,112.1,41.7z"/>
</g>
<g>
	<path class="st2" d="M164.1,48.9h-9.3l-4.5,9c-0.2,0.4-0.8,0.4-1,0l-4.2-9h-9.7c-2.6,0-4.7-2.1-4.7-4.7V15.6c0-2.6,2.1-4.7,4.7-4.7
		h28.6c2.6,0,4.7,2.1,4.7,4.7v28.6C168.8,46.8,166.7,48.9,164.1,48.9z"/>
</g>
<g>
	<path class="st2" d="M215.1,39.5h-9.3l-4.5,9c-0.2,0.4-0.8,0.4-1,0l-4.2-9h-9.7c-2.6,0-4.7-2.1-4.7-4.7V6.2c0-2.6,2.1-4.7,4.7-4.7
		h28.6c2.6,0,4.7,2.1,4.7,4.7v28.6C219.8,37.4,217.7,39.5,215.1,39.5z"/>
</g>
<path class="st0" d="M150.1,33.1L150.1,33.1c-0.8,0-1.4-0.6-1.4-1.4v-8.6c0-0.8,0.6-1.4,1.4-1.4l0,0c0.8,0,1.4,0.6,1.4,1.4v8.6
	C151.5,32.5,150.9,33.1,150.1,33.1z"/>
<path class="st0" d="M150.1,39.3L150.1,39.3c-0.8,0-1.4-0.6-1.4-1.4v-0.1c0-0.8,0.6-1.4,1.4-1.4l0,0c0.8,0,1.4,0.6,1.4,1.4v0.1
	C151.5,38.7,150.9,39.3,150.1,39.3z"/>
<g>
	<g>
		<path class="st0" d="M107.6,17c-0.7,0.3-1.5,0.5-2.3,0.6c0.8-0.5,1.5-1.3,1.8-2.2c-0.8,0.5-1.6,0.8-2.6,1
			c-0.7-0.8-1.8-1.3-2.9-1.3c-2.2,0-4,1.8-4,4c0,0.3,0,0.6,0.1,0.9c-3.4-0.2-6.3-1.8-8.3-4.2c-0.3,0.6-0.6,1.3-0.6,2
			c0,1.4,0.7,2.6,1.8,3.4c-0.6,0-1.3-0.2-1.8-0.5c0,0,0,0,0,0c0,2,1.4,3.6,3.2,4c-0.3,0.1-0.7,0.1-1.1,0.1c-0.3,0-0.5,0-0.8-0.1
			c0.5,1.6,2,2.8,3.8,2.8c-1.4,1.1-3.1,1.7-5,1.7c-0.3,0-0.6,0-1-0.1c1.8,1.2,3.9,1.8,6.2,1.8c7.4,0,11.5-6.2,11.5-11.5
			c0-0.2,0-0.4,0-0.5C106.4,18.6,107.1,17.9,107.6,17z"/>
	</g>
</g>
</svg>
