<?xml version="1.0" encoding="utf-8"?>
<!-- Generator: Adobe Illustrator 23.0.0, SVG Export Plug-In . SVG Version: 6.00 Build 0)  -->
<svg version="1.1" id="Capa_1" xmlns="http://www.w3.org/2000/svg" xmlns:xlink="http://www.w3.org/1999/xlink" x="0px" y="0px"
	 viewBox="0 0 400 480" style="enable-background:new 0 0 400 480;" xml:space="preserve">
<style type="text/css">
	.st0{fill:#FFFFFF;}
</style>
<g>
	<g>
		<path class="st0" d="M256,24H48c-13.3,0-24,10.7-24,24v384c0,13.3,10.7,24,24,24h208c13.3,0,24-10.7,24-24V48
			C280,34.7,269.3,24,256,24z M264,432c0,4.4-3.6,8-8,8H48c-4.4,0-8-3.6-8-8V320h224V432z M96.8,224h30.4l-6.4,64h-17.5L96.8,224z
			 M184.8,224h30.4l-6.4,64h-17.5L184.8,224z M264,304h-48c4.1,0,7.5-3.1,8-7.2l8-80c0.2-2.3-0.5-4.5-2-6.2
			c-1.5-1.7-3.7-2.6-5.9-2.6h-48c-4.4,0-8,3.5-8,8c0,0.3,0,0.6,0,0.8l8,80c0.4,4.1,3.9,7.2,8,7.2h-56c4.1,0,7.6-3.1,8-7.2l7.3-72.8
			h0.7c4.4,0,8-3.6,8-8s-3.6-8-8-8H80c-4.4,0-8,3.6-8,8s3.6,8,8,8h0.8l7.3,72.8c0.4,4.1,3.9,7.2,8,7.2H40V184h224V304z M264,168H40
			V48c0-4.4,3.6-8,8-8h208c4.4,0,8,3.6,8,8V168z"/>
	</g>
</g>
<g>
	<g>
		<path class="st0" d="M394.5,200.4l-18.5-6.2V24c0-13.3-10.7-24-24-24h-16c-13.3,0-24,10.7-24,24v368h-8V40c0-22.1-17.9-40-40-40
			H40C17.9,0,0,17.9,0,40v400c0,22.1,17.9,40,40,40h224c22.1,0,40-17.9,40-40v-8h8v24c0,13.3,10.7,24,24,24h16c13.3,0,24-10.7,24-24
			V285.8l18.5-6.2c3.3-1.1,5.5-4.1,5.5-7.6v-64C400,204.6,397.8,201.5,394.5,200.4z M360,456c0,4.4-3.6,8-8,8h-16c-4.4,0-8-3.6-8-8
			v-32c0-4.4-3.6-8-8-8h-24c-4.4,0-8,3.6-8,8v16c0,13.3-10.7,24-24,24H40c-13.3,0-24-10.7-24-24V40c0-13.3,10.7-24,24-24h224
			c13.3,0,24,10.7,24,24v360c0,4.4,3.6,8,8,8h24c4.4,0,8-3.6,8-8V24c0-4.4,3.6-8,8-8h16c4.4,0,8,3.6,8,8V456z M384,266.2l-8,2.7
			v-57.8l8,2.7V266.2z"/>
	</g>
</g>
<g>
	<g>
		<path class="st0" d="M88,56H64c-4.4,0-8,3.6-8,8s3.6,8,8,8h24c4.4,0,8-3.6,8-8S92.4,56,88,56z"/>
	</g>
</g>
<g>
	<g>
		<path class="st0" d="M224,56H120c-4.4,0-8,3.6-8,8s3.6,8,8,8h104c4.4,0,8,3.6,8,8v24c0,4.4,3.6,8,8,8s8-3.6,8-8V80
			C248,66.7,237.3,56,224,56z"/>
	</g>
</g>
</svg>
