<?xml version="1.0" encoding="utf-8"?>
<!-- Generator: Adobe Illustrator 23.0.0, SVG Export Plug-In . SVG Version: 6.00 Build 0)  -->
<svg version="1.1" id="Capa_1" xmlns="http://www.w3.org/2000/svg" xmlns:xlink="http://www.w3.org/1999/xlink" x="0px" y="0px"
	 viewBox="0 0 477.2 512" style="enable-background:new 0 0 477.2 512;" xml:space="preserve">
<style type="text/css">
	.st0{fill:#FFFFFF;}
</style>
<g>
	<path class="st0" d="M72.9,155.9c0,4.1,3.4,7.5,7.5,7.5h226c4.1,0,7.5-3.4,7.5-7.5c0-4.1-3.4-7.5-7.5-7.5h-226
		C76.3,148.4,72.9,151.7,72.9,155.9z"/>
	<path class="st0" d="M80.4,201.6h226c4.1,0,7.5-3.4,7.5-7.5c0-4.1-3.4-7.5-7.5-7.5h-226c-4.1,0-7.5,3.4-7.5,7.5
		C72.9,198.2,76.3,201.6,80.4,201.6z"/>
	<path class="st0" d="M240.5,125.2c4.1,0,7.5-3.4,7.5-7.5c0-4.1-3.4-7.5-7.5-7.5h-94.1c-4.1,0-7.5,3.4-7.5,7.5
		c0,4.1,3.4,7.5,7.5,7.5H240.5z"/>
	<path class="st0" d="M80.4,239.8h226c4.1,0,7.5-3.4,7.5-7.5c0-4.1-3.4-7.5-7.5-7.5h-226c-4.1,0-7.5,3.4-7.5,7.5
		C72.9,236.4,76.3,239.8,80.4,239.8z"/>
	<path class="st0" d="M80.4,278h226c4.1,0,7.5-3.4,7.5-7.5s-3.4-7.5-7.5-7.5h-226c-4.1,0-7.5,3.4-7.5,7.5S76.3,278,80.4,278z"/>
	<path class="st0" d="M80.4,316.1h226c4.1,0,7.5-3.4,7.5-7.5s-3.4-7.5-7.5-7.5h-226c-4.1,0-7.5,3.4-7.5,7.5S76.3,316.1,80.4,316.1z"
		/>
	<path class="st0" d="M80.4,354.3h226c4.1,0,7.5-3.4,7.5-7.5c0-4.1-3.4-7.5-7.5-7.5h-226c-4.1,0-7.5,3.4-7.5,7.5
		C72.9,351,76.3,354.3,80.4,354.3z"/>
	<path class="st0" d="M80.4,392.5h226c4.1,0,7.5-3.4,7.5-7.5s-3.4-7.5-7.5-7.5h-226c-4.1,0-7.5,3.4-7.5,7.5S76.3,392.5,80.4,392.5z"
		/>
	<path class="st0" d="M80.4,430.7h226c4.1,0,7.5-3.4,7.5-7.5s-3.4-7.5-7.5-7.5h-226c-4.1,0-7.5,3.4-7.5,7.5S76.3,430.7,80.4,430.7z"
		/>
	<path class="st0" d="M0,489.4C0,501.9,10.1,512,22.6,512h153.3c4.1,0,7.5-3.4,7.5-7.5s-3.4-7.5-7.5-7.5H22.6
		c-4.2,0-7.6-3.4-7.6-7.6V114.9h77.3c12.5,0,22.6-10.1,22.6-22.6V15h249.3c4.2,0,7.6,3.4,7.6,7.6v466.8c0,4.2-3.4,7.6-7.6,7.6H210.9
		c-4.1,0-7.5,3.4-7.5,7.5s3.4,7.5,7.5,7.5h153.3c12.5,0,22.6-10.1,22.6-22.6V22.6c0-12.5-10.1-22.6-22.6-22.6H107.4
		c-2.1,0-4,0.8-5.3,2.2L2.2,102.1c-1.4,1.4-2.2,3.4-2.2,5.3L0,489.4L0,489.4z M92.3,99.9H25.6c10.8-10.8,63.6-63.6,74.3-74.3v66.7
		C99.9,96.5,96.5,99.9,92.3,99.9z"/>
	<path class="st0" d="M469.7,263.5c4.1,0,7.5-3.4,7.5-7.5V117.7c0-0.7-0.1-1.5-0.4-2.3c0,0,0,0,0,0c-14-42.8-6.6-20.1-23.1-70.4
		c-2-6.2-7.5-10.1-14-10.1s-12,4-14,10.1c-16.5,50.3-9,27.6-23.1,70.4c0,0,0,0,0,0c-0.2,0.8-0.4,1.6-0.4,2.3v356.9
		c0,20.6,16.8,37.4,37.4,37.4c20.6,0,37.4-16.8,37.4-37.4c0-7.1,0-173.2,0-183.6c0-4.1-3.4-7.5-7.5-7.5s-7.5,3.4-7.5,7.5v124.7
		h-14.9V125.2h14.9V256C462.2,260.1,465.6,263.5,469.7,263.5L469.7,263.5z M439.8,50.4l7.1,21.6h-14.1L439.8,50.4z M462.2,474.6
		c0,12.4-10.1,22.4-22.4,22.4s-22.4-10.1-22.4-22.4v-12.9h44.9L462.2,474.6L462.2,474.6z M462.2,430.7v16h-44.9v-16H462.2z
		 M432.3,415.7h-14.9V125.2h14.9V415.7z M420.2,110.2l7.6-23.2h24l7.6,23.2C445.2,110.2,434.4,110.2,420.2,110.2z"/>
</g>
</svg>
