<?xml version="1.0" encoding="utf-8"?>
<!-- Generator: Adobe Illustrator 23.0.0, SVG Export Plug-In . SVG Version: 6.00 Build 0)  -->
<svg version="1.1" id="Слой_1" xmlns="http://www.w3.org/2000/svg" xmlns:xlink="http://www.w3.org/1999/xlink" x="0px" y="0px"
	 viewBox="0 0 512 372.4" style="enable-background:new 0 0 512 372.4;" xml:space="preserve">
<style type="text/css">
	.st0{fill:#FFFFFF;}
</style>
<path class="st0" d="M0,0v372.4h512V0H0z M264.4,22.7C327.1,26.6,377,78.9,377,142.5s-49.8,115.9-112.5,119.8v-15
	c54.4-3.9,97.5-49.4,97.5-104.8c0-55.4-43.1-100.9-97.5-104.8V22.7z M350.2,45h87.5c3,14.7,14.6,26.3,29.3,29.3v136.5
	c-14.7,3-26.3,14.6-29.3,29.3h-87.5c25.7-24.6,41.7-59.2,41.7-97.5S375.9,69.6,350.2,45z M347,142.5c0,49.6-40.4,90-90,90
	s-90-40.4-90-90s40.4-90,90-90S347,92.9,347,142.5z M249.4,37.8c-54.4,3.9-97.5,49.4-97.5,104.8c0,55.4,43.1,100.9,97.5,104.8v15
	c-62.7-3.9-112.5-56.1-112.5-119.8S186.7,26.6,249.4,22.7V37.8z M163.6,240.1H74.3c-3-14.7-14.6-26.3-29.3-29.3V74.3
	c14.7-3,26.3-14.6,29.3-29.3h89.4c-25.7,24.6-41.7,59.2-41.7,97.5S137.9,215.5,163.6,240.1z M15,15h197.6
	c-10.7,3.7-20.9,8.8-30.2,15H60v7.5C60,49.9,49.9,60,37.5,60H30v165h7.5c12.4,0,22.5,10.1,22.5,22.5v7.5h122.4
	c9.3,6.2,19.4,11.3,30.2,15H15V15z M497,357.4H15v-13.6h482V357.4z M497,328.7H15v-13.6h482V328.7z M497,300.1H15v-15h482V300.1z
	 M497,270.1H301.3c10.7-3.7,20.9-8.8,30.2-15H452v-7.5c0-12.4,10.1-22.5,22.5-22.5h7.5V60h-7.5C462.1,60,452,49.9,452,37.5V30H331.5
	c-9.3-6.2-19.4-11.3-30.2-15H497V270.1z"/>
<path class="st0" d="M467,30h15v15h-15V30z"/>
<path class="st0" d="M467,240.1h15v15h-15V240.1z"/>
<path class="st0" d="M30,30h15v15H30V30z"/>
<path class="st0" d="M30,240.1h15v15H30V240.1z"/>
<path class="st0" d="M76.9,135h15v15h-15V135z"/>
<path class="st0" d="M422,135h15v15h-15V135z"/>
<path class="st0" d="M253.7,171c-9.5,0-18.1-3.1-24.3-6.4l-4.4,17.1c5.6,3.2,15.1,5.9,24.9,6.3v13.9h14.3V187
	c16.8-2.9,26-14,26-27.1c0-13.2-7-21.2-24.4-27.4c-12.4-4.7-17.6-7.8-17.6-12.6c0-4.1,3.1-8.2,12.6-8.2c10.5,0,17.3,3.4,21.1,5
	l4.2-16.5c-4.8-2.3-11.4-4.4-21.2-4.8V82.5h-14.3v13.9c-15.7,3.1-24.7,13.2-24.7,26c0,14.2,10.7,21.5,26.3,26.8
	c10.8,3.7,15.5,7.2,15.5,12.7C267.8,167.8,262.1,171,253.7,171z"/>
</svg>
