<?xml version="1.0" encoding="utf-8"?>
<!-- Generator: Adobe Illustrator 23.0.0, SVG Export Plug-In . SVG Version: 6.00 Build 0)  -->
<svg version="1.1" id="Capa_1" xmlns="http://www.w3.org/2000/svg" xmlns:xlink="http://www.w3.org/1999/xlink" x="0px" y="0px"
	 viewBox="0 0 506 397.1" style="enable-background:new 0 0 506 397.1;" xml:space="preserve">
<style type="text/css">
	.st0{fill:#FFFFFF;}
</style>
<g>
	<circle class="st0" cx="92.7" cy="47.4" r="7.1"/>
	<path class="st0" d="M40.3,47.4c0,3.9,3.2,7.1,7.1,7.1s7.1-3.2,7.1-7.1s-3.2-7.1-7.1-7.1S40.3,43.5,40.3,47.4z"/>
	<path class="st0" d="M194.5,141.1h-22l-0.7-2c-3.9-10.9-14.2-18.2-25.7-18.2c-11.5,0-21.8,7.3-25.7,18.2l-0.7,2H50.4
		c-3.9,0-7.1,3.2-7.1,7.1s3.2,7.1,7.1,7.1h69.4l0.7,2c3.9,10.9,14.2,18.2,25.7,18.2c11.5,0,21.8-7.3,25.7-18.2l0.7-2h22
		c3.9,0,7.1-3.2,7.1-7.1S198.4,141.1,194.5,141.1z M146.2,161.3c-7.2,0-13.1-5.9-13.1-13.1c0-7.2,5.9-13.1,13.1-13.1
		c7.2,0,13.1,5.9,13.1,13.1C159.2,155.4,153.4,161.3,146.2,161.3z"/>
	<path class="st0" d="M194.5,221.7H97l-0.7-2c-3.9-10.9-14.2-18.2-25.7-18.2c-15,0-27.2,12.2-27.2,27.2S55.6,256,70.6,256
		c11.5,0,21.8-7.3,25.7-18.2l0.7-2h97.6c3.9,0,7.1-3.2,7.1-7.1S198.4,221.7,194.5,221.7z M70.6,241.9c-7.2,0-13.1-5.9-13.1-13.1
		s5.9-13.1,13.1-13.1s13.1,5.9,13.1,13.1S77.8,241.9,70.6,241.9z"/>
	<circle class="st0" cx="366.9" cy="390.1" r="7.1"/>
	<path class="st0" d="M50.4,316.5h46.2l0.7,2c3.9,10.9,14.2,18.2,25.7,18.2s21.8-7.3,25.7-18.2l0.7-2h45.2c3.9,0,7.1-3.2,7.1-7.1
		s-3.2-7.1-7.1-7.1h-45.2l-0.7-2c-3.9-10.9-14.2-18.2-25.7-18.2s-21.8,7.3-25.7,18.2l-0.7,2H50.4c-3.9,0-7.1,3.2-7.1,7.1
		S46.5,316.5,50.4,316.5z M123,296.4c7.2,0,13.1,5.9,13.1,13.1s-5.9,13.1-13.1,13.1c-7.2,0-13.1-5.9-13.1-13.1
		S115.8,296.4,123,296.4z"/>
	<path class="st0" d="M131,47.4c0,3.9,3.2,7.1,7.1,7.1s7.1-3.2,7.1-7.1s-3.2-7.1-7.1-7.1S131,43.5,131,47.4z"/>
	<path class="st0" d="M275.2,284.3h183.4c3.9,0,7.1-3.2,7.1-7.1s-3.2-7.1-7.1-7.1H275.2c-3.9,0-7.1,3.2-7.1,7.1
		S271.3,284.3,275.2,284.3z"/>
	<path class="st0" d="M458.6,120.9H275.2c-3.9,0-7.1,3.2-7.1,7.1v100.8c0,3.9,3.2,7.1,7.1,7.1h183.4c3.9,0,7.1-3.2,7.1-7.1V128
		C465.7,124.1,462.5,120.9,458.6,120.9z M451.5,221.7H282.3v-86.6h169.3V221.7z"/>
	<path class="st0" d="M403.2,325.6c0-3.9-3.2-7.1-7.1-7.1H275.2c-3.9,0-7.1,3.2-7.1,7.1s3.2,7.1,7.1,7.1h120.9
		C400,332.6,403.2,329.5,403.2,325.6z"/>
	<path class="st0" d="M478.8,0H27.2C12.2,0,0,12.2,0,27.2v362.8c0,3.9,3.2,7.1,7.1,7.1h314.5c2.3,0,4.4-1.1,5.7-2.9
		c1.4-1.9,1.7-4.2,1-6.5c-0.9-2.8-3.6-4.7-6.7-4.7h-79.6V94.8h249.9V383h-79.2c-3.9,0-7.2,2.9-7.4,6.6c-0.1,2,0.5,3.9,1.9,5.3
		c1.4,1.5,3.2,2.3,5.2,2.3h86.7c3.9,0,7.1-3.2,7.1-7.1V27.2C506,12.2,493.8,0,478.8,0z M227.8,383H14.2V94.8h213.6V383z M491.8,80.6
		H14.2V27.2c0-7.2,5.9-13.1,13.1-13.1h451.5c7.2,0,13.1,5.9,13.1,13.1V80.6z"/>
</g>
</svg>
