<?xml version="1.0" encoding="utf-8"?>
<!-- Generator: Adobe Illustrator 23.0.0, SVG Export Plug-In . SVG Version: 6.00 Build 0)  -->
<svg version="1.1" id="Capa_1" xmlns="http://www.w3.org/2000/svg" xmlns:xlink="http://www.w3.org/1999/xlink" x="0px" y="0px"
	 viewBox="0 0 269 204.8" style="enable-background:new 0 0 269 204.8;" xml:space="preserve">
<style type="text/css">
	.st0{fill:#FFFFFF;}
</style>
<g>
	<g>
		<path class="st0" d="M268,186.6L268,186.6c0-0.2,0-0.3-0.1-0.4c0-0.1-0.1-0.2-0.1-0.3c-0.1-0.2-0.1-0.3-0.1-0.3l-21.2-41.8V6.6
			c0-3.7-3-6.6-6.6-6.6H29.1c-3.7,0-6.6,3-6.6,6.6v137L1.3,185.4c-0.1,0.1-0.1,0.2-0.1,0.3c-0.1,0.2-0.1,0.3-0.1,0.4
			c0,0.1,0,0.3-0.1,0.4l-1,0l1,0.1l0,0.1v10c0,4.4,3.6,8.1,8.1,8.1h250.9c4.4,0,8.1-3.6,8.1-8.1L268,186.6l1-0.1L268,186.6z
			 M28.4,5.9h212.2v135.5H28.4V5.9z M27.2,147.3h214.5l18.5,36.5h-89l-4.5-16.5c-0.8-2.8-3.3-4.7-6.2-4.7h-52.1
			c-2.9,0-5.4,1.9-6.2,4.7l-4.5,16.5h-89L27.2,147.3z M165.2,183.8h-61.4l4.2-15.3h53L165.2,183.8z M262.1,196.7
			c0,1.2-1,2.2-2.2,2.2H9c-1.2,0-2.2-1-2.2-2.2v-7.1h255.2V196.7z"/>
		<polygon class="st0" points="269,186.5 269,186.5 269,186.5 		"/>
	</g>
	<path class="st0" d="M41.7,81.2c-1.6,0-2.9,1.3-2.9,2.9v41.7c0,2.9,2.3,5.2,5.2,5.2H225c2.9,0,5.2-2.3,5.2-5.2V84.1
		c0-1.6-1.3-2.9-2.9-2.9c-1.6,0-2.9,1.3-2.9,2.9v41H44.7v-41C44.7,82.5,43.3,81.2,41.7,81.2z"/>
	<path class="st0" d="M227.3,66.1c1.6,0,2.9-1.3,2.9-2.9V21.5c0-2.9-2.3-5.2-5.2-5.2H44c-2.9,0-5.2,2.3-5.2,5.2v41.7
		c0,1.6,1.3,2.9,2.9,2.9s2.9-1.3,2.9-2.9v-41h179.7v41C224.3,64.7,225.6,66.1,227.3,66.1z"/>
</g>
</svg>
